<svg version="1.1" id="Layer_1" xmlns="http://www.w3.org/2000/svg" xmlns:xlink="http://www.w3.org/1999/xlink" x="0px" y="0px"
	 width="100%" viewBox="0 0 720 360" enable-background="new 0 0 720 360" xml:space="preserve">
<path fill="#FEFEFE" opacity="1.000000" stroke="none" 
	d="
M532.000000,361.000000 
	C354.707581,361.000000 177.915192,361.000000 1.061391,361.000000 
	C1.061391,241.068726 1.061391,121.137413 1.061391,1.103051 
	C240.875717,1.103051 480.751495,1.103051 720.813599,1.103051 
	C720.813599,120.999756 720.813599,240.999863 720.813599,361.000000 
	C658.137451,361.000000 595.318726,361.000000 532.000000,361.000000 
M192.409271,236.997910 
	C192.600098,237.001770 192.790939,237.005615 193.430130,237.552689 
	C194.631927,238.091919 195.829468,238.640884 197.036301,239.168594 
	C201.146469,240.965851 203.751282,245.685532 202.209198,249.311905 
	C198.537628,257.946014 197.831345,266.984497 197.735641,276.212067 
	C197.622238,287.143768 197.189545,298.072784 196.843079,309.001282 
	C196.570816,317.589172 196.528397,317.614319 205.106674,319.983643 
	C207.670242,320.691681 210.292465,321.702332 212.877533,321.672821 
	C215.464935,321.643311 218.039459,320.486603 220.619629,319.824005 
	C218.945267,317.871399 217.639618,314.965851 215.526169,314.148132 
	C209.615356,311.861359 208.206482,307.439453 208.217407,301.941925 
	C208.221039,300.118591 208.233536,298.242371 208.638687,296.481598 
	C210.688721,287.572479 212.648026,278.632721 215.062637,269.819733 
	C217.836243,259.696381 221.053635,249.694626 224.505798,238.218826 
	C228.091324,240.011139 231.676605,240.629852 232.293579,242.327393 
	C234.304489,247.860321 235.483398,253.743317 236.499451,259.575745 
	C237.381241,264.637421 237.532761,269.822174 238.137070,274.937164 
	C239.418015,285.779114 240.752670,296.614960 242.138229,307.444000 
	C242.453400,309.907196 242.229248,313.518127 243.697052,314.552856 
	C248.100067,317.656921 253.174545,319.838104 258.088867,322.164154 
	C259.160156,322.671173 260.805206,322.658539 261.917419,322.213715 
	C263.353638,321.639465 265.030762,320.622498 265.612030,319.344788 
	C265.964294,318.570465 264.689728,316.678162 263.708252,315.752167 
	C261.538940,313.705627 259.254150,311.686981 256.718842,310.146851 
	C253.568573,308.233215 251.860382,305.815186 252.042068,302.085876 
	C252.285110,297.096619 252.572495,292.105133 252.629944,287.112152 
	C252.750031,276.677094 252.851837,266.238953 252.715515,255.805267 
	C252.655472,251.210022 251.995895,246.622604 251.575607,241.641647 
	C258.113708,240.838486 263.948456,240.121735 271.154205,239.236557 
	C271.089874,233.810791 271.061646,228.041092 270.915100,222.274384 
	C270.889526,221.267319 270.366333,220.272888 269.704956,218.017746 
	C273.005554,219.850403 275.118866,221.505432 277.515289,222.252716 
	C282.285980,223.740356 283.014099,227.091965 281.940277,231.091125 
	C280.036285,238.182098 280.282928,245.766129 276.039001,252.365646 
	C273.126862,256.894196 271.681824,262.339294 269.103790,267.117188 
	C266.562439,271.827057 269.121094,278.727173 262.635437,281.811798 
	C261.901306,282.160980 262.014923,284.558319 261.957947,286.014618 
	C261.802460,289.989655 261.936951,293.981995 261.644043,297.944366 
	C261.155945,304.547913 262.625885,310.311340 268.567169,313.928772 
	C269.998413,314.800201 272.597626,314.988708 274.014435,314.251404 
	C275.116089,313.678131 275.593933,311.195679 275.674042,309.529358 
	C275.808502,306.730957 274.492188,303.566925 275.389648,301.152802 
	C279.078003,291.231201 282.661041,281.154266 287.637787,271.859985 
	C292.785889,262.245789 299.502808,253.471664 306.204224,243.313263 
	C306.204224,252.691711 305.056671,261.131622 306.456818,269.125275 
	C308.933838,283.267090 310.017517,297.373627 309.917694,311.678467 
	C309.858582,320.145813 311.557556,321.992065 317.595367,322.028992 
	C324.707916,322.072510 331.831543,322.432098 338.927094,322.122009 
	C341.940430,321.990356 347.300690,320.797974 347.448853,319.582458 
	C348.016022,314.928131 343.283508,315.749084 340.324860,314.780579 
	C331.801971,311.990753 328.041138,305.476379 328.912659,298.591949 
	C330.326019,287.427338 332.227539,276.299103 333.052826,265.091431 
	C334.285065,248.357544 335.209503,231.572983 335.394409,214.800369 
	C335.508514,204.454651 337.281189,193.993744 333.283966,183.660858 
	C331.273468,178.463699 330.946320,172.319641 331.103119,166.638138 
	C331.492371,152.531509 332.566864,138.442810 333.423981,124.350418 
	C334.144470,112.504433 332.194336,102.010818 317.991943,96.250404 
	C321.354614,94.418549 323.565826,93.435692 325.514526,92.076492 
	C326.873138,91.128868 328.945160,89.572372 328.847778,88.448181 
	C328.398071,83.257187 332.052185,77.051666 325.551117,73.113197 
	C325.106171,72.843628 325.244476,71.607590 325.115784,70.820335 
	C324.412872,66.520050 323.711243,62.219547 322.999542,57.860073 
	C318.466858,57.598339 314.221436,57.223396 309.970062,57.135502 
	C301.855255,56.967743 295.565033,63.338104 296.191589,71.362633 
	C296.509552,75.435417 297.495667,79.472504 298.381958,83.481003 
	C300.180328,91.614571 299.098541,92.259720 291.831085,98.161903 
	C286.985992,102.096779 279.991821,104.909462 277.561340,109.958305 
	C273.248962,118.916451 270.938416,129.063141 269.198639,138.960129 
	C267.922363,146.220306 268.925476,146.397217 261.434937,147.397751 
	C260.786285,147.484390 260.135620,147.556213 258.979279,147.696274 
	C258.979279,139.889282 259.006805,132.250504 258.971954,124.612007 
	C258.932556,115.983910 255.511169,109.587120 246.935425,106.767540 
	C247.292908,95.000694 247.419327,91.712166 236.137314,86.830559 
	C237.461670,81.080460 232.450012,73.541519 226.599442,71.954247 
	C225.086334,71.543747 223.663651,70.115608 222.609299,68.821098 
	C218.744904,64.076485 213.627151,64.394989 208.565979,65.438072 
	C204.661301,66.242805 201.025558,68.450012 200.908066,72.886765 
	C200.736816,79.353119 196.515244,85.588814 199.782318,92.238800 
	C199.976837,92.634727 199.927521,93.278473 199.751724,93.708900 
	C197.407700,99.448021 197.872803,104.721046 202.056168,108.718742 
	C197.858566,112.464783 193.892197,116.004456 189.916275,119.552666 
	C184.766312,116.963173 179.153854,114.141129 173.541382,111.319084 
	C182.960312,107.596085 185.092102,103.624191 183.162048,94.147263 
	C182.536636,91.076393 182.207443,87.863815 182.324677,84.737885 
	C182.724136,74.086922 172.616150,66.939674 162.344803,70.780846 
	C158.181076,72.337944 144.158188,87.658905 143.343567,91.975044 
	C142.519699,96.340248 142.001694,100.779449 141.630356,105.209763 
	C141.141800,111.038658 141.401291,116.779770 135.989563,121.187881 
	C133.726456,123.031296 132.565567,126.882469 131.992065,130.019775 
	C130.428879,138.571335 129.543671,147.244232 128.201462,155.839630 
	C127.149490,162.576324 125.484940,169.229599 124.679207,175.989853 
	C123.148636,188.831558 121.771706,201.704742 120.871742,214.602600 
	C120.456772,220.549805 124.232742,224.554794 129.553604,225.875336 
	C129.138855,222.912216 128.697906,219.761871 128.256958,216.611526 
	C128.588745,216.623154 128.920532,216.634796 129.252335,216.646439 
	C130.168121,218.075790 131.083923,219.505142 131.999725,220.934509 
	C132.456680,220.728622 132.913635,220.522736 133.370605,220.316864 
	C132.159210,213.477127 130.947830,206.637390 129.691849,199.545883 
	C132.179474,202.280258 133.781738,205.634521 136.108749,206.250381 
	C140.282990,207.355103 140.205139,209.962463 140.956848,213.105118 
	C143.067108,221.927322 145.232483,230.788849 148.292236,239.305725 
	C149.524551,242.735901 151.953339,245.464462 150.749573,249.569534 
	C147.943939,259.137268 150.675919,269.947632 144.225220,278.767456 
	C143.707138,279.475800 143.826355,281.278503 144.380920,282.039795 
	C147.656357,286.536194 145.716858,290.759857 144.193573,295.156433 
	C142.291779,300.645416 140.265869,306.144531 139.048187,311.801697 
	C137.952606,316.891571 141.643677,320.866943 147.272751,321.620880 
	C152.863098,322.369659 152.675400,317.991943 153.393494,314.514069 
	C153.661453,313.216278 153.558548,311.841125 153.834656,310.546021 
	C154.993927,305.108368 156.232697,299.687653 157.362640,294.618347 
	C158.446579,298.603943 158.676117,302.969940 160.736313,306.149963 
	C163.434830,310.315186 163.948593,314.094086 162.862442,318.696228 
	C162.378387,320.747162 162.286514,324.185974 163.440765,325.017151 
	C165.069870,326.190186 168.378998,326.346832 170.334854,325.489410 
	C175.176208,323.367157 179.866669,320.726227 184.223404,317.721863 
	C188.577713,314.719177 187.846603,310.305908 184.728363,306.300415 
	C182.717941,303.717957 178.435608,300.695007 180.990784,296.418243 
	C186.643845,286.956299 188.141861,276.479340 189.220306,265.864929 
	C190.196304,256.258667 190.972565,246.632126 192.409271,236.997910 
M554.974182,325.371002 
	C560.859436,323.077606 567.079468,321.375549 572.519226,318.295319 
	C576.545776,316.015289 574.386902,310.912811 574.648621,307.110382 
	C575.051147,301.261719 574.141846,295.300842 574.773010,289.494537 
	C576.006165,278.150696 577.918701,266.880676 579.552368,255.580490 
	C579.695068,254.593872 579.777039,253.589798 580.021790,252.628052 
	C581.367432,247.339859 582.783630,242.069534 584.115540,236.777939 
	C584.754150,234.240814 585.260559,231.670380 585.826782,229.115036 
	C586.402222,229.150879 586.977661,229.186722 587.553040,229.222565 
	C588.393433,235.411835 589.010864,241.643555 590.177795,247.770630 
	C590.684509,250.430557 592.209167,252.933609 593.485229,255.397171 
	C594.355225,257.076721 596.317444,258.464783 596.550720,260.154419 
	C597.843689,269.520996 599.039185,278.920166 599.701660,288.347992 
	C600.157776,294.839874 600.227966,301.455444 599.512268,307.909485 
	C598.549744,316.589569 599.779724,318.898712 608.646179,320.994934 
	C609.092407,321.100464 609.698242,321.249847 609.896240,321.579285 
	C613.055176,326.834900 618.307556,326.432281 623.232971,326.189697 
	C625.279541,326.088898 627.253906,324.521729 629.261108,323.621429 
	C627.991516,321.702026 626.991760,319.514221 625.400696,317.914551 
	C620.994507,313.484558 616.299011,309.343292 611.841248,304.962280 
	C611.291809,304.422333 611.302002,303.105835 611.374451,302.174225 
	C611.797058,296.738617 612.441650,291.318146 612.771484,285.877991 
	C613.244080,278.083282 613.696533,270.278534 613.800537,262.473328 
	C613.871460,257.151672 612.826477,251.789505 613.165222,246.502121 
	C614.024414,233.092178 614.789978,219.627136 616.742615,206.353256 
	C618.097534,197.142395 617.322632,187.995102 615.425293,179.457336 
	C612.546204,166.502075 611.015259,153.981964 614.245056,140.344910 
	C616.353821,142.075226 618.009827,143.374542 619.599182,144.750824 
	C622.742004,147.472275 625.811096,150.279572 628.978271,152.971954 
	C633.047363,156.430984 637.253540,156.846497 641.648132,153.446411 
	C646.644958,149.580353 651.647034,145.715317 656.767883,142.017441 
	C660.000366,139.683167 663.512939,137.739273 666.780701,135.450027 
	C668.108704,134.519730 670.061462,133.169479 670.102417,131.955460 
	C670.234009,128.051727 673.194214,127.384483 675.668335,125.981743 
	C678.560608,124.341873 681.399780,122.608582 684.282410,120.951401 
	C688.949768,118.268204 690.396057,113.676102 691.404175,108.488136 
	C688.374756,109.449005 685.857422,111.056038 683.234619,112.466988 
	C680.522583,113.925949 677.708130,115.194527 674.721375,116.652374 
	C674.555115,114.793686 674.450073,113.619644 674.345032,112.445602 
	C673.894714,112.259712 673.444397,112.073830 672.994080,111.887939 
	C670.323364,114.949654 667.493225,117.888367 665.015930,121.099319 
	C660.214233,127.322906 654.935059,132.886612 647.611206,136.212112 
	C636.021484,141.474625 634.690613,140.897766 628.301941,129.665207 
	C622.974609,120.298721 618.234558,110.142418 605.915771,107.780205 
	C612.515320,91.548187 618.915161,75.807495 625.314941,60.066803 
	C627.240784,65.039696 628.316101,69.901001 628.840698,74.821037 
	C629.408875,80.150360 632.286011,83.986870 635.606384,87.714676 
	C635.756165,84.722763 634.168396,80.831924 635.429260,79.325668 
	C640.673401,73.060951 638.503479,65.652840 640.105164,58.955620 
	C642.427917,49.243702 636.166077,43.356915 634.420654,35.603123 
	C633.978271,35.661446 633.535828,35.719769 633.093445,35.778091 
	C623.020020,59.631035 612.946594,83.483978 602.832397,107.433403 
	C597.866150,103.672554 597.800476,97.594604 602.306274,90.903694 
	C607.257446,83.551392 606.729919,75.502754 600.876526,69.091255 
	C596.532104,64.332573 589.831055,62.478428 585.187805,66.222603 
	C580.473511,70.024094 575.498474,71.243881 569.855652,71.778328 
	C566.821838,72.065666 564.523621,73.699051 565.042175,77.847145 
	C567.855957,78.376472 570.736328,78.918335 573.513794,79.440826 
	C573.702026,79.657707 573.886353,79.769951 573.900513,79.900665 
	C574.778015,87.992691 570.106506,97.799980 580.930847,102.757515 
	C580.930847,104.097145 580.930847,105.394424 580.930847,106.845161 
	C574.951660,109.107216 569.098022,111.321793 561.958984,114.022675 
	C567.186768,106.106171 565.772522,103.831429 563.762146,97.362335 
	C563.421204,96.265167 562.260925,94.973625 561.199402,94.625702 
	C556.115845,92.959618 550.925537,97.625870 551.942200,104.155457 
	C553.697571,115.428871 549.438171,124.940620 545.422363,134.854080 
	C543.698486,139.109772 543.355835,144.161758 543.472351,148.824799 
	C543.529358,151.105209 545.671326,154.642151 547.596252,155.229630 
	C549.902710,155.933548 553.241638,154.559769 555.654846,153.222260 
	C557.842896,152.009552 559.388184,149.637161 562.303467,146.670273 
	C561.751221,149.901688 561.510681,151.612885 561.158875,153.300858 
	C560.535583,156.290955 559.479553,159.248383 559.326416,162.256241 
	C559.241821,163.918732 561.357422,165.720398 561.214294,167.347931 
	C560.633789,173.950256 559.562378,180.509399 558.616699,187.492920 
	C555.563354,186.533142 552.475220,185.562424 549.046265,184.484573 
	C547.333374,195.274338 549.123291,205.128479 554.607239,214.493423 
	C555.708374,213.801926 556.803650,213.114105 557.175476,212.880600 
	C557.731934,223.479523 558.438721,234.076797 558.767395,244.685776 
	C558.889465,248.626663 557.014587,252.965271 561.117249,254.183319 
	C561.117249,262.166290 560.908997,269.295166 561.173218,276.406555 
	C561.462036,284.180420 562.206116,291.936829 562.705383,299.703857 
	C562.789795,301.017578 563.182251,302.820099 562.509338,303.588898 
	C558.929321,307.679199 555.040588,311.498108 551.288757,315.439636 
	C549.135010,317.702271 544.988708,320.400513 545.329834,322.234985 
	C546.112976,326.446167 550.802795,325.225708 554.974182,325.371002 
M99.226456,106.702644 
	C105.565765,98.665421 106.329247,89.004150 106.706520,79.396820 
	C106.796165,77.114067 105.218689,74.014137 103.395912,72.551010 
	C98.230072,68.404434 91.957230,67.821747 85.942169,70.249710 
	C80.114517,72.602043 76.616760,77.352898 76.763916,83.864418 
	C76.874062,88.737862 78.219269,93.614754 78.028137,98.451126 
	C77.924377,101.076767 76.392281,105.021072 74.398026,105.922325 
	C69.648354,108.068840 64.197937,108.615852 59.126534,110.130280 
	C57.675476,110.563599 56.036793,111.834587 55.361839,113.166313 
	C50.463177,122.831673 48.764439,133.192764 49.295227,143.955780 
	C49.439701,146.885284 50.172070,149.867569 49.819118,152.724915 
	C48.636288,162.300552 47.587246,171.943008 45.486710,181.336212 
	C44.217159,187.013428 41.197357,192.322037 38.767738,197.707764 
	C37.479237,200.563950 35.392315,203.094803 34.342888,206.015778 
	C32.791298,210.334442 31.865421,214.876053 30.631317,219.311096 
	C28.973867,225.267532 30.026957,231.066269 33.318047,235.913757 
	C36.366508,240.403839 41.648315,241.400101 46.814346,240.144165 
	C51.542854,238.994568 56.093632,237.113953 61.640003,235.246628 
	C60.890411,240.809494 61.994564,247.788864 59.015427,251.393234 
	C53.705303,257.817749 52.245205,264.806732 50.722054,272.289703 
	C49.954430,276.060852 51.327148,281.317657 45.163067,282.293091 
	C44.599857,282.382202 44.057846,283.511444 43.765102,284.259125 
	C41.587948,289.819519 38.922981,295.275635 37.569614,301.036591 
	C36.856796,304.070862 37.487450,308.436462 39.332233,310.747528 
	C40.925236,312.743164 45.056465,312.993042 48.143738,313.363586 
	C49.225201,313.493378 51.234310,311.911194 51.621960,310.720734 
	C53.000652,306.486847 53.948441,302.103607 54.903698,297.742798 
	C56.925243,288.514343 60.526100,280.334320 67.163094,273.183044 
	C77.204544,262.363556 85.172920,250.157379 87.232330,234.956436 
	C87.425644,233.529526 88.908272,232.277298 89.792290,230.943970 
	C90.287933,231.156586 90.783577,231.369202 91.279221,231.581818 
	C92.422363,238.607895 95.112671,245.799316 94.383133,252.625244 
	C92.912819,266.382080 95.376366,279.207123 100.434906,291.621979 
	C103.444191,299.007507 102.072014,306.198547 100.517693,313.110809 
	C99.552284,317.404175 100.737473,318.100342 103.904129,318.697693 
	C109.124191,319.682281 114.329781,320.831573 119.595459,321.456726 
	C123.356934,321.903259 127.234093,321.863403 130.998795,321.465179 
	C131.989761,321.360382 133.588257,318.077057 133.503891,318.009613 
	C129.511887,314.818726 125.627235,311.328003 121.155945,308.952637 
	C117.311516,306.910278 113.849655,305.684509 113.798615,300.255127 
	C113.693939,289.119019 113.294975,277.963989 112.431686,266.862274 
	C111.414406,253.780350 114.355629,241.338348 118.484970,229.262177 
	C119.504921,226.279358 120.337753,223.829315 119.976845,220.781250 
	C117.707886,201.618866 115.462357,182.453369 113.352440,163.273117 
	C113.177864,161.686096 113.543182,159.074463 114.552620,158.493317 
	C118.451805,156.248367 119.220299,152.714752 118.668343,149.056854 
	C117.385101,140.552582 115.170517,132.178131 114.105118,123.654617 
	C112.967331,114.551941 106.786301,111.745171 99.253181,110.044350 
	C98.293739,109.827721 97.312088,109.709389 95.701447,109.437660 
	C97.188782,108.407104 97.992584,107.850166 99.226456,106.702644 
M470.275757,97.922630 
	C472.072144,96.696983 474.646027,95.878174 475.535645,94.178055 
	C480.416138,84.851097 475.487396,74.751160 477.349792,65.110260 
	C477.442291,64.631447 476.974152,63.808548 476.523987,63.496670 
	C471.302307,59.879189 465.658356,57.371655 459.173340,57.237835 
	C450.646942,57.061882 441.858459,65.772285 443.342224,73.468597 
	C444.271942,78.291183 445.980682,83.035316 447.904816,87.575241 
	C450.028595,92.586174 448.324707,98.319633 443.566528,100.710564 
	C439.433136,102.787575 435.228638,104.819893 431.415527,107.403236 
	C428.905029,109.104073 426.414093,111.411476 424.992218,114.032074 
	C420.880341,121.610588 417.298859,129.477768 413.542358,137.247665 
	C412.497223,139.409378 411.567261,141.626785 411.176117,142.499115 
	C413.230469,145.508652 416.018982,147.802765 415.651276,149.343811 
	C413.143219,159.855728 415.733795,169.787460 417.790375,179.914963 
	C418.820618,184.988312 419.526428,190.472351 418.708984,195.499100 
	C417.318817,204.047684 420.249359,208.458847 429.279602,208.771011 
	C429.690613,207.545670 430.102570,206.317474 430.961517,203.756607 
	C431.968933,206.724976 432.829163,208.332153 433.036285,210.019501 
	C434.451843,221.550873 435.626984,233.112671 437.141632,244.630219 
	C437.438507,246.887741 438.878479,248.994949 439.717255,250.995010 
	C438.754120,257.659363 437.618591,264.637665 436.765350,271.650330 
	C435.767944,279.847504 435.101074,288.084595 434.130493,296.285400 
	C433.429901,302.204803 431.531189,307.776642 433.444550,314.114410 
	C436.493896,324.214874 436.688416,325.002838 447.195679,325.394409 
	C453.653778,325.635071 453.879578,325.439606 454.258850,320.586212 
	C459.532410,320.267975 464.884430,320.880768 469.580292,319.405243 
	C474.532318,317.849243 474.286163,314.674744 469.975494,311.541016 
	C465.953827,308.617371 462.209015,305.300507 458.102417,302.509766 
	C454.382904,299.982086 454.476227,296.558502 455.186768,292.936493 
	C455.598907,290.835663 456.439178,288.803650 457.221954,286.793335 
	C461.079407,276.886688 465.678253,267.204407 465.039490,256.112671 
	C464.867096,253.118500 466.459869,251.459915 469.881683,251.150604 
	C474.339935,250.747620 476.884033,248.215485 477.108459,243.264786 
	C477.454803,235.623489 477.832153,227.919189 479.141693,220.406387 
	C480.188538,214.400650 480.934967,208.629730 484.692169,202.674042 
	C488.314545,196.931992 486.483948,187.646957 486.705444,179.908615 
	C486.806671,176.371841 486.082855,172.811462 485.733215,169.261780 
	C486.187988,169.153061 486.642792,169.044342 487.097565,168.935623 
	C489.344849,174.260254 491.663452,179.556778 493.782318,184.932022 
	C494.234039,186.077942 494.541351,187.986862 493.928040,188.735580 
	C488.722198,195.090607 492.232605,201.502167 493.130402,207.947144 
	C504.849091,206.666534 506.682159,204.057068 504.071747,192.977783 
	C503.310303,189.745987 502.590790,186.500305 501.987518,183.235931 
	C498.646149,165.154892 495.593628,147.016159 491.947784,128.997208 
	C489.425964,116.533371 483.661652,106.239372 470.390900,102.089134 
	C469.857025,101.922180 469.946686,99.761337 470.275757,97.922630 
M353.905853,224.006882 
	C354.123169,226.659851 354.137970,229.347855 354.590057,231.960190 
	C357.995117,251.634842 361.377380,271.314850 365.031738,290.943878 
	C365.879181,295.495728 366.601654,300.860199 369.413452,304.071808 
	C373.617432,308.873505 373.862274,313.657684 373.298462,319.206055 
	C372.924072,322.890381 374.957184,324.265533 378.481628,324.101959 
	C384.458801,323.824585 385.785431,319.189789 387.305695,314.745422 
	C389.978271,315.939453 392.449921,317.350922 395.105804,318.150726 
	C398.256592,319.099487 400.279877,316.859192 399.297363,313.731598 
	C397.418945,307.751953 395.917389,301.585022 393.333313,295.918152 
	C391.343109,291.553741 393.789246,288.824768 396.211792,287.263519 
	C403.244110,282.731323 405.676758,275.745575 408.100494,268.498444 
	C411.235321,259.125122 414.680786,249.853531 417.676697,240.437653 
	C418.366394,238.269897 418.376495,235.488403 417.649750,233.345276 
	C415.797974,227.884537 411.983826,222.883926 414.920166,216.615707 
	C415.294220,215.817169 414.980499,214.627777 414.806610,213.651306 
	C411.455139,194.827011 408.099396,176.003403 404.687439,157.190018 
	C403.895569,152.823608 402.354004,148.345764 407.654388,146.276306 
	C406.186554,139.010574 404.485199,132.230621 403.525360,125.347290 
	C402.672577,119.231339 399.283478,115.898605 393.793518,113.991203 
	C391.217377,113.096161 388.739075,111.919579 386.216431,110.870575 
	C393.825256,110.827515 395.614441,105.798012 395.934906,100.087418 
	C396.178192,95.752228 395.746643,91.306129 395.029205,87.007217 
	C393.959930,80.600220 393.000793,73.586899 385.490631,71.368874 
	C377.425262,68.986862 370.787750,71.778641 365.939972,78.702385 
	C365.273529,79.654282 364.652069,80.948509 363.702148,81.342384 
	C355.541321,84.726166 355.111176,92.075508 354.417206,99.226830 
	C353.907684,104.477623 354.242676,109.863403 353.239471,115.001205 
	C351.614349,123.323814 348.526093,131.378250 349.467651,140.099747 
	C349.582336,141.161911 349.289307,142.572739 348.633148,143.364334 
	C344.149902,148.772842 342.328339,154.726181 341.842163,161.912018 
	C341.184906,171.626480 339.967468,181.127808 341.859375,190.895142 
	C343.123474,197.421387 344.194641,203.410522 350.499512,204.844452 
	C351.666504,211.527145 352.681946,217.341888 353.905853,224.006882 
z"/>
<path fill="#3B82F6" opacity="1.000000" stroke="none" 
	d="
M191.836884,237.014511 
	C190.972565,246.632126 190.196304,256.258667 189.220306,265.864929 
	C188.141861,276.479340 186.643845,286.956299 180.990784,296.418243 
	C178.435608,300.695007 182.717941,303.717957 184.728363,306.300415 
	C187.846603,310.305908 188.577713,314.719177 184.223404,317.721863 
	C179.866669,320.726227 175.176208,323.367157 170.334854,325.489410 
	C168.378998,326.346832 165.069870,326.190186 163.440765,325.017151 
	C162.286514,324.185974 162.378387,320.747162 162.862442,318.696228 
	C163.948593,314.094086 163.434830,310.315186 160.736313,306.149963 
	C158.676117,302.969940 158.446579,298.603943 157.362640,294.618347 
	C156.232697,299.687653 154.993927,305.108368 153.834656,310.546021 
	C153.558548,311.841125 153.661453,313.216278 153.393494,314.514069 
	C152.675400,317.991943 152.863098,322.369659 147.272751,321.620880 
	C141.643677,320.866943 137.952606,316.891571 139.048187,311.801697 
	C140.265869,306.144531 142.291779,300.645416 144.193573,295.156433 
	C145.716858,290.759857 147.656357,286.536194 144.380920,282.039795 
	C143.826355,281.278503 143.707138,279.475800 144.225220,278.767456 
	C150.675919,269.947632 147.943939,259.137268 150.749573,249.569534 
	C151.953339,245.464462 149.524551,242.735901 148.292236,239.305725 
	C145.232483,230.788849 143.067108,221.927322 140.956848,213.105118 
	C140.205139,209.962463 140.282990,207.355103 136.108749,206.250381 
	C133.781738,205.634521 132.179474,202.280258 129.691849,199.545883 
	C130.947830,206.637390 132.159210,213.477127 133.370605,220.316864 
	C132.913635,220.522736 132.456680,220.728622 131.999725,220.934509 
	C131.083923,219.505142 130.168121,218.075790 129.252335,216.646439 
	C128.920532,216.634796 128.588745,216.623154 128.256958,216.611526 
	C128.697906,219.761871 129.138855,222.912216 129.553604,225.875336 
	C124.232742,224.554794 120.456772,220.549805 120.871742,214.602600 
	C121.771706,201.704742 123.148636,188.831558 124.679207,175.989853 
	C125.484940,169.229599 127.149490,162.576324 128.201462,155.839630 
	C129.543671,147.244232 130.428879,138.571335 131.992065,130.019775 
	C132.565567,126.882469 133.726456,123.031296 135.989563,121.187881 
	C141.401291,116.779770 141.141800,111.038658 141.630356,105.209763 
	C142.001694,100.779449 142.519699,96.340248 143.343567,91.975044 
	C144.158188,87.658905 158.181076,72.337944 162.344803,70.780846 
	C172.616150,66.939674 182.724136,74.086922 182.324677,84.737885 
	C182.207443,87.863815 182.536636,91.076393 183.162048,94.147263 
	C185.092102,103.624191 182.960312,107.596085 173.541382,111.319084 
	C179.153854,114.141129 184.766312,116.963173 189.916275,119.552666 
	C193.892197,116.004456 197.858566,112.464783 202.056168,108.718742 
	C197.872803,104.721046 197.407700,99.448021 199.751724,93.708900 
	C199.927521,93.278473 199.976837,92.634727 199.782318,92.238800 
	C196.515244,85.588814 200.736816,79.353119 200.908066,72.886765 
	C201.025558,68.450012 204.661301,66.242805 208.565979,65.438072 
	C213.627151,64.394989 218.744904,64.076485 222.609299,68.821098 
	C223.663651,70.115608 225.086334,71.543747 226.599442,71.954247 
	C232.450012,73.541519 237.461670,81.080460 236.137314,86.830559 
	C247.419327,91.712166 247.292908,95.000694 246.935425,106.767540 
	C255.511169,109.587120 258.932556,115.983910 258.971954,124.612007 
	C259.006805,132.250504 258.979279,139.889282 258.979279,147.696274 
	C260.135620,147.556213 260.786285,147.484390 261.434937,147.397751 
	C268.925476,146.397217 267.922363,146.220306 269.198639,138.960129 
	C270.938416,129.063141 273.248962,118.916451 277.561340,109.958305 
	C279.991821,104.909462 286.985992,102.096779 291.831085,98.161903 
	C299.098541,92.259720 300.180328,91.614571 298.381958,83.481003 
	C297.495667,79.472504 296.509552,75.435417 296.191589,71.362633 
	C295.565033,63.338104 301.855255,56.967743 309.970062,57.135502 
	C314.221436,57.223396 318.466858,57.598339 322.999542,57.860073 
	C323.711243,62.219547 324.412872,66.520050 325.115784,70.820335 
	C325.244476,71.607590 325.106171,72.843628 325.551117,73.113197 
	C332.052185,77.051666 328.398071,83.257187 328.847778,88.448181 
	C328.945160,89.572372 326.873138,91.128868 325.514526,92.076492 
	C323.565826,93.435692 321.354614,94.418549 317.991943,96.250404 
	C332.194336,102.010818 334.144470,112.504433 333.423981,124.350418 
	C332.566864,138.442810 331.492371,152.531509 331.103119,166.638138 
	C330.946320,172.319641 331.273468,178.463699 333.283966,183.660858 
	C337.281189,193.993744 335.508514,204.454651 335.394409,214.800369 
	C335.209503,231.572983 334.285065,248.357544 333.052826,265.091431 
	C332.227539,276.299103 330.326019,287.427338 328.912659,298.591949 
	C328.041138,305.476379 331.801971,311.990753 340.324860,314.780579 
	C343.283508,315.749084 348.016022,314.928131 347.448853,319.582458 
	C347.300690,320.797974 341.940430,321.990356 338.927094,322.122009 
	C331.831543,322.432098 324.707916,322.072510 317.595367,322.028992 
	C311.557556,321.992065 309.858582,320.145813 309.917694,311.678467 
	C310.017517,297.373627 308.933838,283.267090 306.456818,269.125275 
	C305.056671,261.131622 306.204224,252.691711 306.204224,243.313263 
	C299.502808,253.471664 292.785889,262.245789 287.637787,271.859985 
	C282.661041,281.154266 279.078003,291.231201 275.389648,301.152802 
	C274.492188,303.566925 275.808502,306.730957 275.674042,309.529358 
	C275.593933,311.195679 275.116089,313.678131 274.014435,314.251404 
	C272.597626,314.988708 269.998413,314.800201 268.567169,313.928772 
	C262.625885,310.311340 261.155945,304.547913 261.644043,297.944366 
	C261.936951,293.981995 261.802460,289.989655 261.957947,286.014618 
	C262.014923,284.558319 261.901306,282.160980 262.635437,281.811798 
	C269.121094,278.727173 266.562439,271.827057 269.103790,267.117188 
	C271.681824,262.339294 273.126862,256.894196 276.039001,252.365646 
	C280.282928,245.766129 280.036285,238.182098 281.940277,231.091125 
	C283.014099,227.091965 282.285980,223.740356 277.515289,222.252716 
	C275.118866,221.505432 273.005554,219.850403 269.704956,218.017746 
	C270.366333,220.272888 270.889526,221.267319 270.915100,222.274384 
	C271.061646,228.041092 271.089874,233.810791 271.154205,239.236557 
	C263.948456,240.121735 258.113708,240.838486 251.575607,241.641647 
	C251.995895,246.622604 252.655472,251.210022 252.715515,255.805267 
	C252.851837,266.238953 252.750031,276.677094 252.629944,287.112152 
	C252.572495,292.105133 252.285110,297.096619 252.042068,302.085876 
	C251.860382,305.815186 253.568573,308.233215 256.718842,310.146851 
	C259.254150,311.686981 261.538940,313.705627 263.708252,315.752167 
	C264.689728,316.678162 265.964294,318.570465 265.612030,319.344788 
	C265.030762,320.622498 263.353638,321.639465 261.917419,322.213715 
	C260.805206,322.658539 259.160156,322.671173 258.088867,322.164154 
	C253.174545,319.838104 248.100067,317.656921 243.697052,314.552856 
	C242.229248,313.518127 242.453400,309.907196 242.138229,307.444000 
	C240.752670,296.614960 239.418015,285.779114 238.137070,274.937164 
	C237.532761,269.822174 237.381241,264.637421 236.499451,259.575745 
	C235.483398,253.743317 234.304489,247.860321 232.293579,242.327393 
	C231.676605,240.629852 228.091324,240.011139 224.505798,238.218826 
	C221.053635,249.694626 217.836243,259.696381 215.062637,269.819733 
	C212.648026,278.632721 210.688721,287.572479 208.638687,296.481598 
	C208.233536,298.242371 208.221039,300.118591 208.217407,301.941925 
	C208.206482,307.439453 209.615356,311.861359 215.526169,314.148132 
	C217.639618,314.965851 218.945267,317.871399 220.619629,319.824005 
	C218.039459,320.486603 215.464935,321.643311 212.877533,321.672821 
	C210.292465,321.702332 207.670242,320.691681 205.106674,319.983643 
	C196.528397,317.614319 196.570816,317.589172 196.843079,309.001282 
	C197.189545,298.072784 197.622238,287.143768 197.735641,276.212067 
	C197.831345,266.984497 198.537628,257.946014 202.209198,249.311905 
	C203.751282,245.685532 201.146469,240.965851 197.036301,239.168594 
	C195.829468,238.640884 194.631927,238.091919 193.234558,236.874359 
	C193.314529,233.780304 193.590088,231.364578 193.941574,228.558807 
	C196.139267,217.934616 198.309189,207.709976 200.329895,197.455917 
	C200.626480,195.950882 200.718201,194.041916 200.050308,192.767654 
	C194.500488,182.179047 187.562912,172.235870 185.374130,160.006760 
	C184.810318,163.045715 184.171921,166.131836 184.932724,168.822311 
	C187.027069,176.228607 186.058517,184.358444 190.302795,191.251358 
	C190.872574,192.176727 190.978119,193.483261 191.020096,194.623535 
	C191.441010,206.058899 191.803619,217.496429 192.054947,229.316376 
	C191.897125,232.137787 191.867020,234.576157 191.836884,237.014511 
M261.584686,190.004425 
	C263.937408,196.487259 266.290131,202.970093 268.683960,209.566162 
	C273.891205,191.057907 264.706116,173.499939 266.300598,155.094391 
	C260.629456,156.494308 255.414749,157.781570 249.302399,159.290421 
	C253.336563,169.421890 257.294861,179.362823 261.584686,190.004425 
M279.344879,156.986343 
	C276.617432,169.538437 278.403229,182.067047 278.939209,194.602142 
	C279.444183,194.621048 279.949158,194.639954 280.454163,194.658859 
	C281.566742,180.453690 282.679321,166.248505 283.791901,152.043335 
	C283.168488,151.906097 282.545074,151.768860 281.921661,151.631638 
	C281.189575,153.172653 280.457489,154.713684 279.344879,156.986343 
M200.791595,143.335419 
	C199.228867,153.882584 199.893082,155.717041 207.453995,159.874039 
	C205.864838,152.042496 204.398056,144.814041 202.931290,137.585602 
	C202.392395,137.662354 201.853516,137.739120 201.314636,137.815872 
	C201.174728,139.378403 201.034821,140.940933 200.791595,143.335419 
z"/>
<path fill="#F97316" opacity="1.000000" stroke="none" 
	d="
M554.568787,325.412964 
	C550.802795,325.225708 546.112976,326.446167 545.329834,322.234985 
	C544.988708,320.400513 549.135010,317.702271 551.288757,315.439636 
	C555.040588,311.498108 558.929321,307.679199 562.509338,303.588898 
	C563.182251,302.820099 562.789795,301.017578 562.705383,299.703857 
	C562.206116,291.936829 561.462036,284.180420 561.173218,276.406555 
	C560.908997,269.295166 561.117249,262.166290 561.117249,254.183319 
	C557.014587,252.965271 558.889465,248.626663 558.767395,244.685776 
	C558.438721,234.076797 557.731934,223.479523 557.175476,212.880600 
	C556.803650,213.114105 555.708374,213.801926 554.607239,214.493423 
	C549.123291,205.128479 547.333374,195.274338 549.046265,184.484573 
	C552.475220,185.562424 555.563354,186.533142 558.616699,187.492920 
	C559.562378,180.509399 560.633789,173.950256 561.214294,167.347931 
	C561.357422,165.720398 559.241821,163.918732 559.326416,162.256241 
	C559.479553,159.248383 560.535583,156.290955 561.158875,153.300858 
	C561.510681,151.612885 561.751221,149.901688 562.303467,146.670273 
	C559.388184,149.637161 557.842896,152.009552 555.654846,153.222260 
	C553.241638,154.559769 549.902710,155.933548 547.596252,155.229630 
	C545.671326,154.642151 543.529358,151.105209 543.472351,148.824799 
	C543.355835,144.161758 543.698486,139.109772 545.422363,134.854080 
	C549.438171,124.940620 553.697571,115.428871 551.942200,104.155457 
	C550.925537,97.625870 556.115845,92.959618 561.199402,94.625702 
	C562.260925,94.973625 563.421204,96.265167 563.762146,97.362335 
	C565.772522,103.831429 567.186768,106.106171 561.958984,114.022675 
	C569.098022,111.321793 574.951660,109.107216 580.930847,106.845161 
	C580.930847,105.394424 580.930847,104.097145 580.930847,102.757515 
	C570.106506,97.799980 574.778015,87.992691 573.900513,79.900665 
	C573.886353,79.769951 573.702026,79.657707 573.513794,79.440826 
	C570.736328,78.918335 567.855957,78.376472 565.042175,77.847145 
	C564.523621,73.699051 566.821838,72.065666 569.855652,71.778328 
	C575.498474,71.243881 580.473511,70.024094 585.187805,66.222603 
	C589.831055,62.478428 596.532104,64.332573 600.876526,69.091255 
	C606.729919,75.502754 607.257446,83.551392 602.306274,90.903694 
	C597.800476,97.594604 597.866150,103.672554 602.832397,107.433403 
	C612.946594,83.483978 623.020020,59.631035 633.093445,35.778091 
	C633.535828,35.719769 633.978271,35.661446 634.420654,35.603123 
	C636.166077,43.356915 642.427917,49.243702 640.105164,58.955620 
	C638.503479,65.652840 640.673401,73.060951 635.429260,79.325668 
	C634.168396,80.831924 635.756165,84.722763 635.606384,87.714676 
	C632.286011,83.986870 629.408875,80.150360 628.840698,74.821037 
	C628.316101,69.901001 627.240784,65.039696 625.314941,60.066803 
	C618.915161,75.807495 612.515320,91.548187 605.915771,107.780205 
	C618.234558,110.142418 622.974609,120.298721 628.301941,129.665207 
	C634.690613,140.897766 636.021484,141.474625 647.611206,136.212112 
	C654.935059,132.886612 660.214233,127.322906 665.015930,121.099319 
	C667.493225,117.888367 670.323364,114.949654 672.994080,111.887939 
	C673.444397,112.073830 673.894714,112.259712 674.345032,112.445602 
	C674.450073,113.619644 674.555115,114.793686 674.721375,116.652374 
	C677.708130,115.194527 680.522583,113.925949 683.234619,112.466988 
	C685.857422,111.056038 688.374756,109.449005 691.404175,108.488136 
	C690.396057,113.676102 688.949768,118.268204 684.282410,120.951401 
	C681.399780,122.608582 678.560608,124.341873 675.668335,125.981743 
	C673.194214,127.384483 670.234009,128.051727 670.102417,131.955460 
	C670.061462,133.169479 668.108704,134.519730 666.780701,135.450027 
	C663.512939,137.739273 660.000366,139.683167 656.767883,142.017441 
	C651.647034,145.715317 646.644958,149.580353 641.648132,153.446411 
	C637.253540,156.846497 633.047363,156.430984 628.978271,152.971954 
	C625.811096,150.279572 622.742004,147.472275 619.599182,144.750824 
	C618.009827,143.374542 616.353821,142.075226 614.245056,140.344910 
	C611.015259,153.981964 612.546204,166.502075 615.425293,179.457336 
	C617.322632,187.995102 618.097534,197.142395 616.742615,206.353256 
	C614.789978,219.627136 614.024414,233.092178 613.165222,246.502121 
	C612.826477,251.789505 613.871460,257.151672 613.800537,262.473328 
	C613.696533,270.278534 613.244080,278.083282 612.771484,285.877991 
	C612.441650,291.318146 611.797058,296.738617 611.374451,302.174225 
	C611.302002,303.105835 611.291809,304.422333 611.841248,304.962280 
	C616.299011,309.343292 620.994507,313.484558 625.400696,317.914551 
	C626.991760,319.514221 627.991516,321.702026 629.261108,323.621399 
	C627.253906,324.521729 625.279541,326.088898 623.232971,326.189697 
	C618.307556,326.432281 613.055176,326.834900 609.896240,321.579285 
	C609.698242,321.249847 609.092407,321.100464 608.646179,320.994934 
	C599.779724,318.898712 598.549744,316.589569 599.512268,307.909485 
	C600.227966,301.455444 600.157776,294.839874 599.701660,288.347992 
	C599.039185,278.920166 597.843689,269.520996 596.550720,260.154419 
	C596.317444,258.464783 594.355225,257.076721 593.485229,255.397171 
	C592.209167,252.933609 590.684509,250.430557 590.177795,247.770630 
	C589.010864,241.643555 588.393433,235.411835 587.553040,229.222565 
	C586.977661,229.186722 586.402222,229.150879 585.826782,229.115036 
	C585.260559,231.670380 584.754150,234.240814 584.115540,236.777939 
	C582.783630,242.069534 581.367432,247.339859 580.021790,252.628052 
	C579.777039,253.589798 579.695068,254.593872 579.552368,255.580490 
	C577.918701,266.880676 576.006165,278.150696 574.773010,289.494537 
	C574.141846,295.300842 575.051147,301.261719 574.648621,307.110382 
	C574.386902,310.912811 576.545776,316.015289 572.519226,318.295319 
	C567.079468,321.375549 560.859436,323.077606 554.568787,325.412964 
z"/>
<path fill="#3B82F6" opacity="1.000000" stroke="none" 
	d="
M99.011414,106.997932 
	C97.992584,107.850166 97.188782,108.407104 95.701447,109.437660 
	C97.312088,109.709389 98.293739,109.827721 99.253181,110.044350 
	C106.786301,111.745171 112.967331,114.551941 114.105118,123.654617 
	C115.170517,132.178131 117.385101,140.552582 118.668343,149.056854 
	C119.220299,152.714752 118.451805,156.248367 114.552620,158.493317 
	C113.543182,159.074463 113.177864,161.686096 113.352440,163.273117 
	C115.462357,182.453369 117.707886,201.618866 119.976845,220.781250 
	C120.337753,223.829315 119.504921,226.279358 118.484970,229.262177 
	C114.355629,241.338348 111.414406,253.780350 112.431686,266.862274 
	C113.294975,277.963989 113.693939,289.119019 113.798615,300.255127 
	C113.849655,305.684509 117.311516,306.910278 121.155945,308.952637 
	C125.627235,311.328003 129.511887,314.818726 133.503891,318.009613 
	C133.588257,318.077057 131.989761,321.360382 130.998795,321.465179 
	C127.234093,321.863403 123.356934,321.903259 119.595459,321.456726 
	C114.329781,320.831573 109.124191,319.682281 103.904129,318.697693 
	C100.737473,318.100342 99.552284,317.404175 100.517693,313.110809 
	C102.072014,306.198547 103.444191,299.007507 100.434906,291.621979 
	C95.376366,279.207123 92.912819,266.382080 94.383133,252.625244 
	C95.112671,245.799316 92.422363,238.607895 91.279221,231.581818 
	C90.783577,231.369202 90.287933,231.156586 89.792290,230.943970 
	C88.908272,232.277298 87.425644,233.529526 87.232330,234.956436 
	C85.172920,250.157379 77.204544,262.363556 67.163094,273.183044 
	C60.526100,280.334320 56.925243,288.514343 54.903698,297.742798 
	C53.948441,302.103607 53.000652,306.486847 51.621960,310.720734 
	C51.234310,311.911194 49.225201,313.493378 48.143738,313.363586 
	C45.056465,312.993042 40.925236,312.743164 39.332233,310.747528 
	C37.487450,308.436462 36.856796,304.070862 37.569614,301.036591 
	C38.922981,295.275635 41.587948,289.819519 43.765102,284.259125 
	C44.057846,283.511444 44.599857,282.382202 45.163067,282.293091 
	C51.327148,281.317657 49.954430,276.060852 50.722054,272.289703 
	C52.245205,264.806732 53.705303,257.817749 59.015427,251.393234 
	C61.994564,247.788864 60.890411,240.809494 61.640003,235.246628 
	C56.093632,237.113953 51.542854,238.994568 46.814346,240.144165 
	C41.648315,241.400101 36.366508,240.403839 33.318047,235.913757 
	C30.026957,231.066269 28.973867,225.267532 30.631317,219.311096 
	C31.865421,214.876053 32.791298,210.334442 34.342888,206.015778 
	C35.392315,203.094803 37.479237,200.563950 38.767738,197.707764 
	C41.197357,192.322037 44.217159,187.013428 45.486710,181.336212 
	C47.587246,171.943008 48.636288,162.300552 49.819118,152.724915 
	C50.172070,149.867569 49.439701,146.885284 49.295227,143.955780 
	C48.764439,133.192764 50.463177,122.831673 55.361839,113.166313 
	C56.036793,111.834587 57.675476,110.563599 59.126534,110.130280 
	C64.197937,108.615852 69.648354,108.068840 74.398026,105.922325 
	C76.392281,105.021072 77.924377,101.076767 78.028137,98.451126 
	C78.219269,93.614754 76.874062,88.737862 76.763916,83.864418 
	C76.616760,77.352898 80.114517,72.602043 85.942169,70.249710 
	C91.957230,67.821747 98.230072,68.404434 103.395912,72.551010 
	C105.218689,74.014137 106.796165,77.114067 106.706520,79.396820 
	C106.329247,89.004150 105.565765,98.665421 99.011414,106.997932 
M47.061726,184.949463 
	C49.895679,185.303497 52.729637,185.657547 55.665184,186.024277 
	C55.242729,179.949356 54.626816,175.169174 54.636547,170.390274 
	C54.657307,160.198746 54.790257,160.199020 51.933704,157.001053 
	C50.304802,166.229279 48.722969,175.190857 47.061726,184.949463 
z"/>
<path fill="#3B82F6" opacity="1.000000" stroke="none" 
	d="
M470.010803,98.226059 
	C469.946686,99.761337 469.857025,101.922180 470.390900,102.089134 
	C483.661652,106.239372 489.425964,116.533371 491.947784,128.997208 
	C495.593628,147.016159 498.646149,165.154892 501.987518,183.235931 
	C502.590790,186.500305 503.310303,189.745987 504.071747,192.977783 
	C506.682159,204.057068 504.849091,206.666534 493.130402,207.947144 
	C492.232605,201.502167 488.722198,195.090607 493.928040,188.735580 
	C494.541351,187.986862 494.234039,186.077942 493.782318,184.932022 
	C491.663452,179.556778 489.344849,174.260254 487.097565,168.935623 
	C486.642792,169.044342 486.187988,169.153061 485.733215,169.261780 
	C486.082855,172.811462 486.806671,176.371841 486.705444,179.908615 
	C486.483948,187.646957 488.314545,196.931992 484.692169,202.674042 
	C480.934967,208.629730 480.188538,214.400650 479.141693,220.406387 
	C477.832153,227.919189 477.454803,235.623489 477.108459,243.264786 
	C476.884033,248.215485 474.339935,250.747620 469.881683,251.150604 
	C466.459869,251.459915 464.867096,253.118500 465.039490,256.112671 
	C465.678253,267.204407 461.079407,276.886688 457.221954,286.793335 
	C456.439178,288.803650 455.598907,290.835663 455.186768,292.936493 
	C454.476227,296.558502 454.382904,299.982086 458.102417,302.509766 
	C462.209015,305.300507 465.953827,308.617371 469.975494,311.541016 
	C474.286163,314.674744 474.532318,317.849243 469.580292,319.405243 
	C464.884430,320.880768 459.532410,320.267975 454.258850,320.586212 
	C453.879578,325.439606 453.653778,325.635071 447.195679,325.394409 
	C436.688416,325.002838 436.493896,324.214874 433.444550,314.114410 
	C431.531189,307.776642 433.429901,302.204803 434.130493,296.285400 
	C435.101074,288.084595 435.767944,279.847504 436.765350,271.650330 
	C437.618591,264.637665 438.754120,257.659363 439.717255,250.995010 
	C438.878479,248.994949 437.438507,246.887741 437.141632,244.630219 
	C435.626984,233.112671 434.451843,221.550873 433.036285,210.019501 
	C432.829163,208.332153 431.968933,206.724976 430.961517,203.756607 
	C430.102570,206.317474 429.690613,207.545670 429.279602,208.771011 
	C420.249359,208.458847 417.318817,204.047684 418.708984,195.499100 
	C419.526428,190.472351 418.820618,184.988312 417.790375,179.914963 
	C415.733795,169.787460 413.143219,159.855728 415.651276,149.343811 
	C416.018982,147.802765 413.230469,145.508652 411.176117,142.499115 
	C411.567261,141.626785 412.497223,139.409378 413.542358,137.247665 
	C417.298859,129.477768 420.880341,121.610588 424.992218,114.032074 
	C426.414093,111.411476 428.905029,109.104073 431.415527,107.403236 
	C435.228638,104.819893 439.433136,102.787575 443.566528,100.710564 
	C448.324707,98.319633 450.028595,92.586174 447.904816,87.575241 
	C445.980682,83.035316 444.271942,78.291183 443.342224,73.468597 
	C441.858459,65.772285 450.646942,57.061882 459.173340,57.237835 
	C465.658356,57.371655 471.302307,59.879189 476.523987,63.496670 
	C476.974152,63.808548 477.442291,64.631447 477.349792,65.110260 
	C475.487396,74.751160 480.416138,84.851097 475.535645,94.178055 
	C474.646027,95.878174 472.072144,96.696983 470.010803,98.226059 
z"/>
<path fill="#3B82F6" opacity="1.000000" stroke="none" 
	d="
M353.801636,223.581757 
	C352.681946,217.341888 351.666504,211.527145 350.499512,204.844452 
	C344.194641,203.410522 343.123474,197.421387 341.859375,190.895142 
	C339.967468,181.127808 341.184906,171.626480 341.842163,161.912018 
	C342.328339,154.726181 344.149902,148.772842 348.633148,143.364334 
	C349.289307,142.572739 349.582336,141.161911 349.467651,140.099747 
	C348.526093,131.378250 351.614349,123.323814 353.239471,115.001205 
	C354.242676,109.863403 353.907684,104.477623 354.417206,99.226830 
	C355.111176,92.075508 355.541321,84.726166 363.702148,81.342384 
	C364.652069,80.948509 365.273529,79.654282 365.939972,78.702385 
	C370.787750,71.778641 377.425262,68.986862 385.490631,71.368874 
	C393.000793,73.586899 393.959930,80.600220 395.029205,87.007217 
	C395.746643,91.306129 396.178192,95.752228 395.934906,100.087418 
	C395.614441,105.798012 393.825256,110.827515 386.216431,110.870575 
	C388.739075,111.919579 391.217377,113.096161 393.793518,113.991203 
	C399.283478,115.898605 402.672577,119.231339 403.525360,125.347290 
	C404.485199,132.230621 406.186554,139.010574 407.654388,146.276306 
	C402.354004,148.345764 403.895569,152.823608 404.687439,157.190018 
	C408.099396,176.003403 411.455139,194.827011 414.806610,213.651306 
	C414.980499,214.627777 415.294220,215.817169 414.920166,216.615707 
	C411.983826,222.883926 415.797974,227.884537 417.649750,233.345276 
	C418.376495,235.488403 418.366394,238.269897 417.676697,240.437653 
	C414.680786,249.853531 411.235321,259.125122 408.100494,268.498444 
	C405.676758,275.745575 403.244110,282.731323 396.211792,287.263519 
	C393.789246,288.824768 391.343109,291.553741 393.333313,295.918152 
	C395.917389,301.585022 397.418945,307.751953 399.297363,313.731598 
	C400.279877,316.859192 398.256592,319.099487 395.105804,318.150726 
	C392.449921,317.350922 389.978271,315.939453 387.305695,314.745422 
	C385.785431,319.189789 384.458801,323.824585 378.481628,324.101959 
	C374.957184,324.265533 372.924072,322.890381 373.298462,319.206055 
	C373.862274,313.657684 373.617432,308.873505 369.413452,304.071808 
	C366.601654,300.860199 365.879181,295.495728 365.031738,290.943878 
	C361.377380,271.314850 357.995117,251.634842 354.590057,231.960190 
	C354.137970,229.347855 354.123169,226.659851 353.801636,223.581757 
M389.628021,258.331177 
	C391.212860,255.169479 392.797668,252.007782 394.382477,248.846085 
	C394.985962,248.738129 395.589447,248.630173 396.192932,248.522232 
	C392.407806,242.037872 388.622681,235.553528 384.837585,229.069183 
	C384.064789,229.316849 383.292023,229.564499 382.519226,229.812149 
	C382.519226,244.457306 382.519226,259.102448 382.519226,274.628540 
	C388.185883,270.066681 387.656281,264.111084 389.628021,258.331177 
M365.160339,96.867691 
	C364.902130,93.558449 364.643890,90.249207 364.385681,86.939964 
	C360.506958,89.796303 361.911407,92.943428 363.191895,95.984261 
	C363.494629,96.703156 364.465363,97.140732 365.160339,96.867691 
z"/>
<path fill="#B1B2B3" opacity="1.000000" stroke="none" 
	d="
M193.865646,228.948883 
	C193.590088,231.364578 193.314529,233.780304 193.010376,236.602753 
	C192.790939,237.005615 192.600098,237.001770 192.123077,237.006210 
	C191.867020,234.576157 191.897125,232.137787 192.335846,229.330902 
	C193.118164,228.957855 193.491913,228.953369 193.865646,228.948883 
z"/>
<path fill="#F6F6F6" opacity="1.000000" stroke="none" 
	d="
M261.418915,189.654083 
	C257.294861,179.362823 253.336563,169.421890 249.302399,159.290421 
	C255.414749,157.781570 260.629456,156.494308 266.300598,155.094391 
	C264.706116,173.499939 273.891205,191.057907 268.683960,209.566162 
	C266.290131,202.970093 263.937408,196.487259 261.418915,189.654083 
z"/>
<path fill="#F1F2F2" opacity="1.000000" stroke="none" 
	d="
M193.941574,228.558823 
	C193.491913,228.953369 193.118164,228.957855 192.463531,228.947845 
	C191.803619,217.496429 191.441010,206.058899 191.020096,194.623535 
	C190.978119,193.483261 190.872574,192.176727 190.302795,191.251358 
	C186.058517,184.358444 187.027069,176.228607 184.932724,168.822311 
	C184.171921,166.131836 184.810318,163.045715 185.374130,160.006760 
	C187.562912,172.235870 194.500488,182.179047 200.050308,192.767654 
	C200.718201,194.041916 200.626480,195.950882 200.329895,197.455917 
	C198.309189,207.709976 196.139267,217.934616 193.941574,228.558823 
z"/>
<path fill="#E7E9E8" opacity="1.000000" stroke="none" 
	d="
M279.535156,156.620514 
	C280.457489,154.713684 281.189575,153.172653 281.921661,151.631638 
	C282.545074,151.768860 283.168488,151.906097 283.791901,152.043335 
	C282.679321,166.248505 281.566742,180.453690 280.454163,194.658859 
	C279.949158,194.639954 279.444183,194.621048 278.939209,194.602142 
	C278.403229,182.067047 276.617432,169.538437 279.535156,156.620514 
z"/>
<path fill="#E8E9E9" opacity="1.000000" stroke="none" 
	d="
M200.843262,142.919434 
	C201.034821,140.940933 201.174728,139.378403 201.314636,137.815872 
	C201.853516,137.739120 202.392395,137.662354 202.931290,137.585602 
	C204.398056,144.814041 205.864838,152.042496 207.453995,159.874039 
	C199.893082,155.717041 199.228867,153.882584 200.843262,142.919434 
z"/>
<path fill="#E9EAE9" opacity="1.000000" stroke="none" 
	d="
M47.101429,184.550949 
	C48.722969,175.190857 50.304802,166.229279 51.933704,157.001053 
	C54.790257,160.199020 54.657307,160.198746 54.636547,170.390274 
	C54.626816,175.169174 55.242729,179.949356 55.665184,186.024277 
	C52.729637,185.657547 49.895679,185.303497 47.101429,184.550949 
z"/>
<path fill="#F1F2F2" opacity="1.000000" stroke="none" 
	d="
M389.479187,258.700684 
	C387.656281,264.111084 388.185883,270.066681 382.519226,274.628540 
	C382.519226,259.102448 382.519226,244.457306 382.519226,229.812149 
	C383.292023,229.564499 384.064789,229.316849 384.837585,229.069183 
	C388.622681,235.553528 392.407806,242.037872 396.192932,248.522232 
	C395.589447,248.630173 394.985962,248.738129 394.382477,248.846085 
	C392.797668,252.007782 391.212860,255.169479 389.479187,258.700684 
z"/>
<path fill="#CCCECE" opacity="1.000000" stroke="none" 
	d="
M365.144592,97.287704 
	C364.465363,97.140732 363.494629,96.703156 363.191895,95.984261 
	C361.911407,92.943428 360.506958,89.796303 364.385681,86.939964 
	C364.643890,90.249207 364.902130,93.558449 365.144592,97.287704 
z"/>
</svg>